STARTFONT 2.1
FONT HAN-GB2312
SIZE 10 72 72
FONTBOUNDINGBOX 6 10 0 0
STARTPROPERTIES 1
BITCOUNT 8
ENDPROPERTIES
CHARS 40
STARTCHAR  00A4
ENCODING  164
SWIDTH  1000 0
DWIDTH  6 0
BBX  0 0 0 0
BITMAP
ENDCHAR
STARTCHAR  00A7
ENCODING  167
SWIDTH  1000 0
DWIDTH  6 0
BBX  0 0 0 0
BITMAP
ENDCHAR
STARTCHAR  00A8
ENCODING  168
SWIDTH  1000 0
DWIDTH  6 0
BBX  0 0 0 0
BITMAP
ENDCHAR
STARTCHAR  00B0
ENCODING  176
SWIDTH  1000 0
DWIDTH  6 0
BBX  0 0 0 0
BITMAP
ENDCHAR
STARTCHAR  00B1
ENCODING  177
SWIDTH  1000 0
DWIDTH  6 0
BBX  0 0 0 0
BITMAP
ENDCHAR
STARTCHAR  00B7
ENCODING  183
SWIDTH  1000 0
DWIDTH  6 0
BBX  0 0 0 0
BITMAP
ENDCHAR
STARTCHAR  00E0
ENCODING  224
SWIDTH  1000 0
DWIDTH  6 0
BBX  0 0 0 0
BITMAP
ENDCHAR
STARTCHAR  00E1
ENCODING  225
SWIDTH  1000 0
DWIDTH  6 0
BBX  0 0 0 0
BITMAP
ENDCHAR
STARTCHAR  00E8
ENCODING  232
SWIDTH  1000 0
DWIDTH  6 0
BBX  0 0 0 0
BITMAP
ENDCHAR
STARTCHAR  00E9
ENCODING  233
SWIDTH  1000 0
DWIDTH  6 0
BBX  0 0 0 0
BITMAP
ENDCHAR
STARTCHAR  00EA
ENCODING  234
SWIDTH  1000 0
DWIDTH  6 0
BBX  0 0 0 0
BITMAP
ENDCHAR
STARTCHAR  00EC
ENCODING  236
SWIDTH  1000 0
DWIDTH  6 0
BBX  0 0 0 0
BITMAP
ENDCHAR
STARTCHAR  00ED
ENCODING  237
SWIDTH  1000 0
DWIDTH  6 0
BBX  0 0 0 0
BITMAP
ENDCHAR
STARTCHAR  00F2
ENCODING  242
SWIDTH  1000 0
DWIDTH  6 0
BBX  0 0 0 0
BITMAP
ENDCHAR
STARTCHAR  00F3
ENCODING  243
SWIDTH  1000 0
DWIDTH  6 0
BBX  0 0 0 0
BITMAP
ENDCHAR
STARTCHAR  00F7
ENCODING  247
SWIDTH  1000 0
DWIDTH  6 0
BBX  0 0 0 0
BITMAP
ENDCHAR
STARTCHAR  00F9
ENCODING  249
SWIDTH  1000 0
DWIDTH  6 0
BBX  0 0 0 0
BITMAP
ENDCHAR
STARTCHAR  00FA
ENCODING  250
SWIDTH  1000 0
DWIDTH  6 0
BBX  0 0 0 0
BITMAP
ENDCHAR
STARTCHAR  00FC
ENCODING  252
SWIDTH  1000 0
DWIDTH  6 0
BBX  0 0 0 0
BITMAP
ENDCHAR
STARTCHAR  02C7
ENCODING  711
SWIDTH  1000 0
DWIDTH  6 0
BBX  0 0 0 0
BITMAP
ENDCHAR
STARTCHAR  02C9
ENCODING  713
SWIDTH  1000 0
DWIDTH  6 0
BBX  0 0 0 0
BITMAP
ENDCHAR
STARTCHAR  0394
ENCODING  916
SWIDTH  1000 0
DWIDTH  6 0
BBX  0 0 0 0
BITMAP
ENDCHAR
STARTCHAR  03BC
ENCODING  956
SWIDTH  1000 0
DWIDTH  6 0
BBX  0 0 0 0
BITMAP
ENDCHAR
STARTCHAR  03C0
ENCODING  960
SWIDTH  1000 0
DWIDTH  6 0
BBX  0 0 0 0
BITMAP
ENDCHAR
STARTCHAR  2014
ENCODING  8212
SWIDTH  1000 0
DWIDTH  6 0
BBX  0 0 0 0
BITMAP
ENDCHAR
STARTCHAR  2018
ENCODING  8216
SWIDTH  1000 0
DWIDTH  3 0
BBX  0 0 0 0
BITMAP
ENDCHAR
STARTCHAR  2019
ENCODING  8217
SWIDTH  1000 0
DWIDTH  3 0
BBX  0 0 0 0
BITMAP
ENDCHAR
STARTCHAR  201C
ENCODING  8220
SWIDTH  1000 0
DWIDTH  3 0
BBX  0 0 0 0
BITMAP
ENDCHAR
STARTCHAR  201D
ENCODING  8221
SWIDTH  1000 0
DWIDTH  3 0
BBX  0 0 0 0
BITMAP
ENDCHAR
STARTCHAR  2026
ENCODING  8230
SWIDTH  1000 0
DWIDTH  6 0
BBX  0 0 0 0
BITMAP
ENDCHAR
STARTCHAR  2030
ENCODING  8240
SWIDTH  1000 0
DWIDTH  6 0
BBX  0 0 0 0
BITMAP
ENDCHAR
STARTCHAR  220F
ENCODING  8719
SWIDTH  1000 0
DWIDTH  6 0
BBX  0 0 0 0
BITMAP
ENDCHAR
STARTCHAR  2211
ENCODING  8721
SWIDTH  1000 0
DWIDTH  6 0
BBX  0 0 0 0
BITMAP
ENDCHAR
STARTCHAR  221A
ENCODING  8730
SWIDTH  1000 0
DWIDTH  6 0
BBX  0 0 0 0
BITMAP
ENDCHAR
STARTCHAR  221E
ENCODING  8734
SWIDTH  1000 0
DWIDTH  6 0
BBX  0 0 0 0
BITMAP
ENDCHAR
STARTCHAR  222B
ENCODING  8747
SWIDTH  1000 0
DWIDTH  6 0
BBX  0 0 0 0
BITMAP
ENDCHAR
STARTCHAR  2248
ENCODING  8776
SWIDTH  1000 0
DWIDTH  6 0
BBX  0 0 0 0
BITMAP
ENDCHAR
STARTCHAR  2260
ENCODING  8800
SWIDTH  1000 0
DWIDTH  6 0
BBX  0 0 0 0
BITMAP
ENDCHAR
STARTCHAR  2264
ENCODING  8804
SWIDTH  1000 0
DWIDTH  6 0
BBX  0 0 0 0
BITMAP
ENDCHAR
STARTCHAR  2265
ENCODING  8805
SWIDTH  1000 0
DWIDTH  6 0
BBX  0 0 0 0
BITMAP
ENDCHAR
ENDFONT
